Coordinates
version=1
nRows=16
nColumns=40
inDegrees=yes

Units are S.I. units (second, meters, Newtons, ...)
If the header above contains a line with 'inDegrees', this indicates whether rotational values are in degrees (yes) or radians (no).

endheader
time	pelvis_tilt	pelvis_list	pelvis_rotation	pelvis_tx	pelvis_ty	pelvis_tz	hip_flexion_r	hip_adduction_r	hip_rotation_r	knee_angle_r	knee_angle_r_beta	ankle_angle_r	subtalar_angle_r	mtp_angle_r	hip_flexion_l	hip_adduction_l	hip_rotation_l	knee_angle_l	knee_angle_l_beta	ankle_angle_l	subtalar_angle_l	mtp_angle_l	lumbar_extension	lumbar_bending	lumbar_rotation	arm_flex_r	arm_add_r	arm_rot_r	elbow_flex_r	pro_sup_r	wrist_flex_r	wrist_dev_r	arm_flex_l	arm_add_l	arm_rot_l	elbow_flex_l	pro_sup_l	wrist_flex_l	wrist_dev_l
      0.66000000	      1.85375558	     -6.23045634	     89.77588947	      0.22104267	      0.99711541	      1.41368130	     14.28580031	      5.87821633	     -0.28890363	     12.85683031	      0.22439402	      3.28339640	      0.00000000	      0.00000000	     20.76585305	     -4.17808919	     -0.62748363	     58.86298526	      1.02735290	     -2.58935559	      0.00000000	      0.00000000	     -2.35161486	     -0.08363325	     -2.57936720	      0.00000000	      0.00000000	      0.00000000	      0.00000000	      0.00000000	      0.00000000	      0.00000000	      0.00000000	      0.00000000	      0.00000000	      0.00000000	      0.00000000	      0.00000000	      0.00000000
      0.67000000	      1.65301511	     -6.29178950	     89.74974221	      0.22147399	      0.99799424	      1.40313164	     13.41630933	      5.69232285	     -0.34329124	     12.41822119	      0.21673885	      3.67500304	      0.00000000	      0.00000000	     22.10521014	     -4.03908663	     -0.89339144	     58.07252919	      1.01355684	     -1.85545367	      0.00000000	      0.00000000	     -2.19494942	     -0.34154144	     -2.42314738	      0.00000000	      0.00000000	      0.00000000	      0.00000000	      0.00000000	      0.00000000	      0.00000000	      0.00000000	      0.00000000	      0.00000000	      0.00000000	      0.00000000	      0.00000000	      0.00000000
      0.68000000	      1.39575862	     -6.21504361	     89.70463307	      0.22181713	      0.99885708	      1.39253759	     12.37940524	      5.46477854	     -0.09465730	     11.95225313	      0.20860617	      4.11480526	      0.00000000	      0.00000000	     23.19902130	     -3.80102362	     -1.12601412	     57.04867384	      0.99568719	     -0.61210313	      0.00000000	      0.00000000	     -2.19542514	     -0.64800805	     -2.36017173	      0.00000000	      0.00000000	      0.00000000	      0.00000000	      0.00000000	      0.00000000	      0.00000000	      0.00000000	      0.00000000	      0.00000000	      0.00000000	      0.00000000	      0.00000000	      0.00000000
      0.69000000	      1.19701042	     -6.17008752	     89.64834959	      0.22220380	      0.99950193	      1.38195427	     11.39721460	      5.28810646	      0.01393467	     11.51565148	      0.20098603	      4.53244929	      0.00000000	      0.00000000	     24.23572794	     -3.63175346	     -1.35649865	     55.77160806	      0.97339819	      0.22811019	      0.00000000	      0.00000000	     -2.16952255	     -0.89088038	     -2.22934783	      0.00000000	      0.00000000	      0.00000000	      0.00000000	      0.00000000	      0.00000000	      0.00000000	      0.00000000	      0.00000000	      0.00000000	      0.00000000	      0.00000000	      0.00000000	      0.00000000
      0.70000000	      0.99500151	     -6.03843519	     89.57235655	      0.22253523	      1.00012196	      1.37124638	     10.30862061	      5.10322064	      0.13578905	     11.06988913	      0.19320601	      4.95959502	      0.00000000	      0.00000000	     25.05930244	     -3.43883303	     -1.57084210	     54.21578816	      0.94624401	      0.98166896	      0.00000000	      0.00000000	     -2.23564565	     -1.12372508	     -2.12019579	      0.00000000	      0.00000000	      0.00000000	      0.00000000	      0.00000000	      0.00000000	      0.00000000	      0.00000000	      0.00000000	      0.00000000	      0.00000000	      0.00000000	      0.00000000	      0.00000000
      0.71000000	      0.82532392	     -6.03081132	     89.46812788	      0.22288089	      1.00036608	      1.36064889	      9.39500935	      4.95434895	      0.29860952	     10.69260103	      0.18662109	      5.39386015	      0.00000000	      0.00000000	     25.93736772	     -3.27262559	     -1.75240144	     52.45921502	      0.91558603	      1.55016102	      0.00000000	      0.00000000	     -2.16986447	     -1.31768649	     -1.98663086	      0.00000000	      0.00000000	      0.00000000	      0.00000000	      0.00000000	      0.00000000	      0.00000000	      0.00000000	      0.00000000	      0.00000000	      0.00000000	      0.00000000	      0.00000000	      0.00000000
      0.72000000	      0.87965238	     -6.22582574	     89.32863694	      0.22336716	      1.00000824	      1.35030410	      8.84961304	      5.03790739	      0.24876220	     10.55900501	      0.18428940	      5.66874144	      0.00000000	      0.00000000	     27.01458120	     -3.39837496	     -1.92888607	     50.59890033	      0.88311741	      1.86415160	      0.00000000	      0.00000000	     -1.89930629	     -1.23562312	     -1.76626612	      0.00000000	      0.00000000	      0.00000000	      0.00000000	      0.00000000	      0.00000000	      0.00000000	      0.00000000	      0.00000000	      0.00000000	      0.00000000	      0.00000000	      0.00000000	      0.00000000
      0.73000000	      0.52843228	     -5.93088194	     89.16690648	      0.22355473	      1.00040231	      1.33933600	      7.49181505	      4.69001762	      0.65374305	      9.94647540	      0.17359874	      6.31504535	      0.00000000	      0.00000000	     27.27913944	     -2.97904893	     -2.07555111	     48.25499373	      0.84220852	      2.24171223	      0.00000000	      0.00000000	     -2.15698620	     -1.63402237	     -1.61130519	      0.00000000	      0.00000000	      0.00000000	      0.00000000	      0.00000000	      0.00000000	      0.00000000	      0.00000000	      0.00000000	      0.00000000	      0.00000000	      0.00000000	      0.00000000	      0.00000000
      0.74000000	      0.40894778	     -5.93008280	     88.94375956	      0.22395452	      1.00006643	      1.32864460	      6.63022482	      4.58706975	      0.91045518	      9.65016556	      0.16842716	      6.80386397	      0.00000000	      0.00000000	     27.84690160	     -2.87608799	     -2.22054307	     45.84746096	      0.80018915	      2.37247965	      0.00000000	      0.00000000	     -2.09664880	     -1.75641545	     -1.37909883	      0.00000000	      0.00000000	      0.00000000	      0.00000000	      0.00000000	      0.00000000	      0.00000000	      0.00000000	      0.00000000	      0.00000000	      0.00000000	      0.00000000	      0.00000000	      0.00000000
      0.75000000	      0.33623331	     -6.08253919	     88.70412468	      0.22432951	      0.99930990	      1.31804118	      5.96583040	      4.53716852	      1.25400963	      9.41154748	      0.16426249	      7.31648240	      0.00000000	     -0.00000000	     28.51932764	     -2.81150456	     -2.28799982	     43.31058664	      0.75591234	      2.40268824	     -0.00000000	     -0.00000000	     -1.86817519	     -1.81365474	     -1.17038147	     -0.00000000	      0.00000000	      0.00000000	      0.00000000	      0.00000000	      0.00000000	     -0.00000000	     -0.00000000	     -0.00000000	      0.00000000	      0.00000000	      0.00000000	      0.00000000	      0.00000000
      0.76000000	      0.24749034	     -6.11364026	     88.41726401	      0.22470814	      0.99857182	      1.30731646	      5.17325471	      4.45785678	      1.60393888	      9.18322873	      0.16027758	      7.85656379	     -0.00000000	     -0.00000000	     28.92879650	     -2.74653711	     -2.37417075	     40.54684666	      0.70767598	      2.24050965	      0.00000000	      0.00000000	     -1.78894979	     -1.88508691	     -0.89519445	      0.00000000	      0.00000000	      0.00000000	      0.00000000	      0.00000000	     -0.00000000	     -0.00000000	      0.00000000	     -0.00000000	     -0.00000000	      0.00000000	      0.00000000	     -0.00000000	     -0.00000000
      0.77000000	      0.18097499	     -6.01586029	     88.09949542	      0.22509599	      0.99785370	      1.29638212	      4.22139997	      4.38895962	      1.94275991	      8.94193185	      0.15606615	      8.35626989	      0.00000000	      0.00000000	     29.07696070	     -2.71292965	     -2.45608966	     37.60505239	      0.65633198	      1.98123401	      0.00000000	      0.00000000	     -1.84277758	     -1.93595357	     -0.55984358	      0.00000000	      0.00000000	      0.00000000	      0.00000000	      0.00000000	      0.00000000	      0.00000000	      0.00000000	      0.00000000	      0.00000000	      0.00000000	      0.00000000	      0.00000000	      0.00000000
      0.78000000	      0.17112768	     -6.18617330	     87.78949855	      0.22545711	      0.99654682	      1.28564084	      3.60591432	      4.38847888	      2.35325827	      8.77306053	      0.15311879	      8.91925405	      0.00000000	      0.00000000	     29.50155895	     -2.72359607	     -2.38141878	     34.63193783	      0.60444134	      1.66716343	      0.00000000	     -0.00000000	     -1.62642856	     -1.91525607	     -0.28646195	      0.00000000	      0.00000000	     -0.00000000	      0.00000000	      0.00000000	      0.00000000	     -0.00000000	      0.00000000	     -0.00000000	      0.00000000	      0.00000000	      0.00000000	     -0.00000000	      0.00000000
      0.79000000	      0.18744752	     -6.31486098	     87.47790988	      0.22577026	      0.99513905	      1.27476327	      2.94679541	      4.39866776	      2.74954089	      8.63080739	      0.15063601	      9.48216498	      0.00000000	      0.00000000	     29.79821972	     -2.76651292	     -2.27618014	     31.55188497	      0.55068428	      1.30126002	      0.00000000	      0.00000000	     -1.43212143	     -1.85933509	      0.02249607	      0.00000000	      0.00000000	      0.00000000	      0.00000000	      0.00000000	      0.00000000	      0.00000000	      0.00000000	      0.00000000	      0.00000000	      0.00000000	      0.00000000	      0.00000000	      0.00000000
      0.80000000	      0.16025223	     -6.36238542	     87.13199796	      0.22602829	      0.99371127	      1.26376899	      2.19521525	      4.34801170	      3.17804447	      8.49205608	      0.14821434	     10.07268375	      0.00000000	      0.00000000	     29.92071600	     -2.78026748	     -2.18225618	     28.37472656	      0.49523240	      0.79941585	      0.00000000	      0.00000000	     -1.34053597	     -1.84491397	      0.34434933	      0.00000000	      0.00000000	      0.00000000	      0.00000000	      0.00000000	      0.00000000	      0.00000000	      0.00000000	      0.00000000	      0.00000000	      0.00000000	      0.00000000	      0.00000000	      0.00000000
      0.81000000	      0.17615051	     -6.37476076	     86.78490207	      0.22630081	      0.99217740	      1.25266730	      1.39354838	      4.32999685	      3.56735990	      8.33858651	      0.14553579	     10.62455172	      0.00000000	      0.00000000	     29.95004015	     -2.85083561	     -2.04474924	     25.15866199	      0.43910149	      0.35435799	     -0.00000000	      0.00000000	     -1.29764545	     -1.79366492	      0.66903244	     -0.00000000	      0.00000000	      0.00000000	      0.00000000	      0.00000000	      0.00000000	      0.00000000	      0.00000000	      0.00000000	      0.00000000	      0.00000000	      0.00000000	      0.00000000	      0.00000000
